<?xml version="1.0" standalone="no"?>
<!DOCTYPE svg PUBLIC "-//W3C//DTD SVG 20010904//EN"
 "http://www.w3.org/TR/2001/REC-SVG-20010904/DTD/svg10.dtd">
<svg version="1.0" xmlns="http://www.w3.org/2000/svg"
 width="274.000000pt" height="195.000000pt" viewBox="0 0 274.000000 195.000000"
 preserveAspectRatio="xMidYMid meet">
<metadata>
Created by potrace 1.16, written by Peter Selinger 2001-2019
</metadata>
<g transform="translate(0.000000,195.000000) scale(0.100000,-0.100000)"
fill="#000000" stroke="none">
<path d="M128 1272 c-40 -49 -64 -124 -54 -169 l7 -28 75 74 75 74 -25 26
c-14 14 -28 35 -33 47 -7 20 -11 18 -45 -24z"/>
<path d="M1112 1214 c-29 -20 -29 -72 -1 -108 17 -22 28 -26 57 -24 29 2 39 8
46 29 13 39 -1 77 -37 99 -39 24 -37 24 -65 4z"/>
<path d="M1339 1189 c-15 -28 3 -69 30 -69 15 0 23 -11 32 -40 15 -49 29 -62
77 -69 28 -5 39 -12 46 -34 7 -19 7 -34 -1 -45 -9 -15 -27 -17 -134 -15 -90 2
-129 -1 -141 -11 -24 -18 -49 -81 -42 -103 21 -67 41 -79 129 -82 33 -1 89 -7
125 -14 36 -6 70 -12 75 -12 6 0 12 -2 15 -5 3 -3 21 -14 40 -24 19 -11 41
-28 49 -38 7 -11 19 -17 27 -14 9 3 11 0 7 -11 -4 -11 -2 -14 8 -11 8 3 13 12
13 21 -1 9 2 15 6 12 12 -7 37 65 38 112 2 36 -3 47 -35 78 -20 20 -43 33 -50
30 -8 -2 -11 0 -8 5 3 6 1 11 -4 11 -6 1 -15 3 -21 4 -5 1 -13 3 -16 4 -4 0
-1 8 6 16 10 12 10 19 2 27 -9 9 -8 16 5 30 21 24 33 23 78 -8 45 -30 55 -22
55 47 0 51 -32 104 -56 95 -8 -3 -13 0 -11 6 3 18 -138 69 -196 71 -46 2 -53
5 -64 30 -15 35 -66 39 -84 6z"/>
<path d="M900 1176 c-96 -22 -120 -44 -120 -113 0 -47 31 -100 64 -109 28 -7
140 20 174 42 56 36 46 129 -17 171 -19 13 -37 23 -40 22 -3 -1 -31 -7 -61
-13z"/>
<path d="M456 1089 c-10 -17 -49 -51 -87 -75 -59 -39 -68 -48 -59 -63 17 -34
139 -57 155 -31 8 13 68 13 82 -1 16 -16 96 -13 130 5 57 29 67 112 22 170
-20 25 -24 26 -123 26 l-102 0 -18 -31z"/>
<path d="M1006 885 c-19 -19 -20 -29 -6 -55 8 -16 5 -19 -23 -25 -60 -12 -202
-57 -252 -80 -27 -12 -60 -25 -72 -29 -13 -4 -23 -12 -23 -17 0 -6 -4 -8 -9
-5 -5 3 -20 -3 -34 -15 -15 -11 -30 -20 -34 -20 -4 -1 -7 -5 -6 -9 1 -4 -5 -7
-15 -6 -9 0 -16 -4 -15 -11 2 -7 -3 -10 -10 -7 -19 7 -161 -132 -153 -151 3
-8 0 -14 -6 -12 -6 1 -15 -13 -20 -30 -10 -37 -11 -37 -39 -23 -13 8 -19 7
-19 0 0 -46 117 -160 164 -160 17 0 42 -14 70 -40 47 -44 165 -97 230 -105 36
-4 34 -3 -12 9 -29 7 -63 23 -76 35 -12 12 -24 19 -27 17 -2 -2 -2 15 -1 38 3
37 0 46 -22 63 -14 11 -23 23 -20 26 10 10 -84 64 -122 72 -35 6 -35 7 -20 31
9 13 13 24 9 24 -4 0 13 19 37 41 55 51 192 142 251 167 62 27 188 69 227 77
18 4 30 10 27 15 -3 4 4 6 15 3 28 -7 70 23 70 50 0 12 -7 30 -15 40 -12 16
-11 21 5 37 18 18 18 60 0 60 -5 0 -15 3 -23 6 -8 3 -22 -2 -31 -11z"/>
<path d="M1195 496 c-19 -29 -8 -61 24 -71 18 -5 18 -8 4 -36 -19 -38 -5 -75
30 -84 30 -8 142 37 179 72 38 36 54 78 40 108 -15 32 -45 32 -118 0 -67 -30
-74 -30 -74 -7 0 45 -59 57 -85 18z"/>
<path d="M980 370 c-47 -10 -130 -23 -184 -29 -54 -6 -106 -16 -117 -21 -39
-22 -10 -89 48 -111 50 -19 224 -3 357 32 77 21 114 98 64 133 -28 20 -60 19
-168 -4z"/>
</g>
</svg>
